{"asset":{"version":"2.0","generator":"SLAYER fallback player"},"scene":0,"scenes":[{"nodes":[0]}],"nodes":[{"name":"Player","children":[1,2,3]},{"name":"Torso","mesh":0,"scale":[0.65,1.25,0.38],"translation":[0,1.15,0]},{"name":"Head","mesh":0,"scale":[0.42,0.42,0.42],"translation":[0,2.0,0]},{"name":"Legs","mesh":0,"scale":[0.48,0.9,0.32],"translation":[0,0.45,0]}],"meshes":[{"primitives":[{"attributes":{"POSITION":0,"NORMAL":1},"indices":2,"material":0}]}],"materials":[{"name":"SLAYER Player","pbrMetallicRoughness":{"baseColorFactor":[0.08,0.28,0.75,1],"metallicFactor":0.0,"roughnessFactor":0.72}}],"buffers":[{"uri":"data:application/octet-stream;base64,","byteLength":648}],"bufferViews":[{"buffer":0,"byteOffset":0,"byteLength":288,"target":34962},{"buffer":0,"byteOffset":288,"byteLength":288,"target":34962},{"buffer":0,"byteOffset":576,"byteLength":72,"target":34963}],"accessors":[{"bufferView":0,"componentType":5126,"count":24,"type":"VEC3","min":[-0.5,-0.5,-0.5],"max":[0.5,0.5,0.5]},{"bufferView":1,"componentType":5126,"count":24,"type":"VEC3"},{"bufferView":2,"componentType":5123,"count":36,"type":"SCALAR"}]}